<svg id="Layer_1" data-name="Layer 1" xmlns="http://www.w3.org/2000/svg" viewBox="0 0 16 16"><defs><style>.cls-1{fill:#232323;}.cls-2{fill:#fff;}</style></defs><title>favicon</title><rect class="cls-1" width="16" height="16"/><polygon class="cls-1" points="10 8.8 10 8.8 10 8.8 10 8.8 10 8.8"/><path class="cls-2" d="M10,8.8a3.7,3.7,0,0,1,.8,1.8v.3a2.7,2.7,0,0,1-2-.9c-.1.4-.1.7-.2,1s-.1.2-.3.2H7.5c-.1,0-.2,0-.2-.2s-.1-.6-.2-.9a3,3,0,0,1-2,.8,3.6,3.6,0,0,1,.2-1.1l.6-1a3.1,3.1,0,0,1-2-.8A4.1,4.1,0,0,0,5,10.8C4,10.8,1.3,9.2.1,8A11.4,11.4,0,0,1,5,5.2,4,4,0,0,0,3.9,7.9a3.1,3.1,0,0,1,1-.5,1.6,1.6,0,0,1,1-.2.6.6,0,0,1-.1.4A2.2,2.2,0,0,0,7.2,10a2.1,2.1,0,0,0,2.6-.9l.2-.3Z"/><path class="cls-2" d="M10,8.8c0-.1.1-.3.1-.4A2.5,2.5,0,0,0,10,7.2,3,3,0,0,1,12,8a4.1,4.1,0,0,0-1.1-2.8,11.3,11.3,0,0,1,5,2.8,12.3,12.3,0,0,1-5.1,2.9A4.2,4.2,0,0,0,12,8a2.7,2.7,0,0,1-2,.8Z"/><path class="cls-2" d="M7.1,6A3.4,3.4,0,0,0,5.9,7.2a3.8,3.8,0,0,1-.8-1.7c0-.4,0-.4.4-.3A2.7,2.7,0,0,1,7.1,6Z"/><path class="cls-2" d="M10.8,5.1A3.2,3.2,0,0,1,10,7.2,2.3,2.3,0,0,0,8.8,6,3.1,3.1,0,0,1,10.8,5.1Z"/><path class="cls-2" d="M8.7,6A2.2,2.2,0,0,0,7.1,6a3.6,3.6,0,0,1,.2-1.1H8.6c.1.3.1.7.2,1Z"/></svg>